<?xml version="1.0" encoding="UTF-8"?>
<svg version="1.1" xmlns="http://www.w3.org/2000/svg" width="243" height="180">
<path d="M0 0 C3.97577292 2.52007654 6.5093943 5.06280837 7.68359375 9.69921875 C7.93375148 13.44137413 7.95421698 16.55906832 5.8359375 19.7578125 C3.99868213 21.41405749 2.09607204 22.68460785 0 24 C-0.86109375 24.58910156 -1.7221875 25.17820312 -2.609375 25.78515625 C-7.0526347 28.80537196 -11.54723817 31.72264218 -16.109375 34.55859375 C-16.79708984 34.99526367 -17.48480469 35.43193359 -18.19335938 35.88183594 C-19.54473692 36.73976176 -20.90530976 37.58340315 -22.27539062 38.41113281 C-24.38109358 39.70365783 -24.38109358 39.70365783 -27 42 C-26.98582031 42.82113281 -26.97164062 43.64226563 -26.95703125 44.48828125 C-26.97121094 45.31714844 -26.98539063 46.14601562 -27 47 C-29.21385955 49.08408719 -31.80661293 50.49938328 -34.4375 52 C-35.1694458 52.43425293 -35.9013916 52.86850586 -36.65551758 53.31591797 C-38.10723201 54.17308402 -39.56378659 55.02211301 -41.02539062 55.86230469 C-42.66061363 56.8044584 -44.27814183 57.77724841 -45.890625 58.7578125 C-49.84370733 61.1108377 -52.28885326 62.442123 -57 62 C-65.17457134 59.17088748 -69.25626173 53.48747654 -73 46 C-73.40355136 40.75383234 -73.11432498 37.3050963 -70 33 C-63.1377655 28.20186993 -55.43965768 24.5527099 -48 20.75 C-40.28837199 16.77818952 -32.62661091 12.74641844 -25.0625 8.5 C-23.63030173 7.70165534 -22.19801505 6.90346927 -20.765625 6.10546875 C-18.47646043 4.82908262 -16.19675414 3.54027426 -13.921875 2.23828125 C-8.95872342 -0.47362044 -5.60895982 -2.11658861 0 0 Z " fill="#626C75" transform="translate(110,1)"/>
<path d="M0 0 C2.87587769 1.88681922 5.01502991 4.1938667 7 7 C7.4375 9.9375 7.4375 9.9375 7 12 C4.96504768 9.96504768 2.99497695 7.99376448 1.1875 5.75 C-1.27586029 3.77931176 -2.74976338 3.52761622 -5.86547852 3.61621094 C-10.4882326 4.44738667 -14.49296229 7.00444114 -18.5625 9.25 C-19.56611572 9.78923096 -20.56973145 10.32846191 -21.60375977 10.8840332 C-24.74354245 12.575554 -27.87191874 14.28695644 -31 16 C-32.94470233 17.05191008 -34.88999729 18.10272541 -36.8359375 19.15234375 C-41.39349398 21.61634531 -45.93529732 24.10771162 -50.47119141 26.61132812 C-52.90451011 27.94756261 -55.34718298 29.26488311 -57.79296875 30.578125 C-59.23720008 31.36417758 -60.68122415 32.15061113 -62.125 32.9375 C-62.77009521 33.27869873 -63.41519043 33.61989746 -64.07983398 33.97143555 C-67.96697186 36.11317746 -70.45914691 38.36569521 -73 42 C-72.69821278 37.67438325 -71.86976534 35.34132652 -68.71069336 32.34985352 C-65.08532624 29.48919206 -60.94826261 27.45721037 -56.875 25.3125 C-55.89942139 24.78994629 -54.92384277 24.26739258 -53.91870117 23.72900391 C-50.95088971 22.14286365 -47.97647328 20.5698148 -45 19 C-43.33200268 18.11593931 -41.66403213 17.23182813 -39.99609375 16.34765625 C-36.90109064 14.709764 -33.79845404 13.0875596 -30.69140625 11.47265625 C-27.37575926 9.74235769 -24.10207847 7.95002422 -20.83984375 6.12109375 C-19.98801514 5.6513916 -19.13618652 5.18168945 -18.25854492 4.69775391 C-16.63193072 3.79951459 -15.01297756 2.88720331 -13.40356445 1.95849609 C-8.57066899 -0.68397317 -5.52087134 -1.67850667 0 0 Z " fill="#7D8892" transform="translate(110,1)"/>
<path d="M0 0 C2.9375 1.0625 2.9375 1.0625 4.875 3.1875 C6.26701161 6.95411965 6.00667594 9.21346663 4.9375 13.0625 C3.25 15.0625 3.25 15.0625 0.9375 16.0625 C-2.1875 15.9375 -2.1875 15.9375 -5.0625 15.0625 C-7.51972633 11.37666051 -7.75005754 8.34254572 -7.0625 4.0625 C-4.92811566 0.69674008 -3.99767683 0.08158524 0 0 Z " fill="#3D4953" transform="translate(103.0625,7.9375)"/>
<path d="M0 0 C2.375 1.625 2.375 1.625 4 4 C4.61195145 7.6717087 4.48706506 9.28813568 2.375 12.375 C-0.71186432 14.48706506 -2.3282913 14.61195145 -6 14 C-8.375 12.375 -8.375 12.375 -10 10 C-10.61195145 6.3282913 -10.48706506 4.71186432 -8.375 1.625 C-5.28813568 -0.48706506 -3.6717087 -0.61195145 0 0 Z " fill="#3C4852" transform="translate(57,38)"/>
<path d="M0 0 C-0.29119519 3.20382908 -0.54131219 4.60411731 -3.02197266 6.74511719 C-3.8938623 7.25719727 -4.76575195 7.76927734 -5.6640625 8.296875 C-6.62183594 8.86277344 -7.57960938 9.42867187 -8.56640625 10.01171875 C-9.57574219 10.58535156 -10.58507812 11.15898438 -11.625 11.75 C-12.61113281 12.33910156 -13.59726563 12.92820312 -14.61328125 13.53515625 C-19.78572221 16.53917737 -23.97668282 18.76379148 -30 19 C-30.33 18.01 -30.66 17.02 -31 16 C-30.05511719 15.81695312 -29.11023437 15.63390625 -28.13671875 15.4453125 C-22.62718252 13.87274414 -18.35322632 10.24467934 -13.8125 6.875 C-12.0545177 5.57212987 -10.29042684 4.27745057 -8.51953125 2.9921875 C-7.74714111 2.41839355 -6.97475098 1.84459961 -6.17895508 1.25341797 C-4 0 -4 0 0 0 Z " fill="#495661" transform="translate(83,44)"/>
<path d="M0 0 C1.375 2.0625 1.375 2.0625 2 4 C1.29875 3.649375 0.5975 3.29875 -0.125 2.9375 C-3.50268586 1.8360807 -5.58080593 2.20483859 -9 3 C-8.67 2.01 -8.34 1.02 -8 0 C-5.04063954 -1.47968023 -3.13239866 -0.84835797 0 0 Z " fill="#4C5B66" transform="translate(106,9)"/>
</svg>
