<?xml version="1.0" encoding="UTF-8"?>
<svg version="1.1" xmlns="http://www.w3.org/2000/svg" width="243" height="180">
<path d="M0 0 C3.7102793 0.20844266 5.46499961 2.23068911 7.85742188 4.90039062 C8.51581055 5.66125977 8.51581055 5.66125977 9.1875 6.4375 C9.63802734 6.94087891 10.08855469 7.44425781 10.55273438 7.96289062 C12.27058661 9.90223505 13.83624441 11.67248883 15 14 C16.95468218 14.60192466 18.91177661 15.19724433 20.88085938 15.75024414 C30.88564305 18.65249744 30.88564305 18.65249744 34.203125 22.6640625 C35.45142673 25.45394168 36.34041041 28.01882865 37 31 C37.34417969 32.32451172 37.34417969 32.32451172 37.6953125 33.67578125 C38 36 38 36 36.375 38.625 C34.01519545 40.98480455 32.02809109 42.6024195 29 44 C28.01 43.67 27.02 43.34 26 43 C25.0078125 40.96875 25.0078125 40.96875 24.125 38.5 C22.71879039 34.80671086 22.71879039 34.80671086 19.4375 32.8125 C16.73986384 32.82007618 16.73986384 32.82007618 14 35 C13.16458146 37.36757327 13.16458146 37.36757327 14 40 C16.15242125 41.97037567 18.50161196 43.50224186 21 45 C20.50399982 49.21600156 19.43239539 51.08741306 16.25 53.875 C15.23679687 54.79925781 15.23679687 54.79925781 14.203125 55.7421875 C12 57 12 57 9.4921875 56.90234375 C4.82876308 55.21386249 1.82604486 52.00356355 -1 48 C-1.98908071 44.91311102 -2.61457245 41.86529772 -3.2421875 38.6875 C-4.36183423 34.71679407 -6.70063648 33.34762405 -10 31 C-16.46255507 23.6123348 -16.46255507 23.6123348 -18 19 C-17.67 18.34 -17.34 17.68 -17 17 C-18.65 16.67 -20.3 16.34 -22 16 C-20.7768573 12.3305719 -19.83030369 12.01809593 -16.5625 10.1171875 C-15.66789062 9.58996094 -14.77328125 9.06273437 -13.8515625 8.51953125 C-12.91054687 7.97683594 -11.96953125 7.43414062 -11 6.875 C-9.14523293 5.7900883 -7.29103492 4.70420294 -5.4375 3.6171875 C-4.61121094 3.13878418 -3.78492187 2.66038086 -2.93359375 2.16748047 C-1.06441712 1.14436284 -1.06441712 1.14436284 0 0 Z " fill="#616B74" transform="translate(112,9)"/>
<path d="M0 0 C5.31448776 0.99824904 10.41436425 2.01508364 15 5 C17.62278584 9.07099074 19 13.1583153 19 18 C19.66 18.33 20.32 18.66 21 19 C19.7391988 20.03319813 18.46596742 21.05124379 17.1875 22.0625 C16.47980469 22.63097656 15.77210938 23.19945313 15.04296875 23.78515625 C14.36878906 24.18605469 13.69460937 24.58695313 13 25 C12.01 24.67 11.02 24.34 10 24 C9.0078125 21.96875 9.0078125 21.96875 8.125 19.5 C6.71879039 15.80671086 6.71879039 15.80671086 3.4375 13.8125 C0.73986384 13.82007618 0.73986384 13.82007618 -2 16 C-2.83541854 18.36757327 -2.83541854 18.36757327 -2 21 C0.15242125 22.97037567 2.50161196 24.50224186 5 26 C4.50399982 30.21600156 3.43239539 32.08741306 0.25 34.875 C-0.76320313 35.79925781 -0.76320313 35.79925781 -1.796875 36.7421875 C-4 38 -4 38 -6.5 37.93359375 C-9.47791156 36.8215299 -11.03969586 35.4610762 -13.25 33.1875 C-13.93578125 32.50042969 -14.6215625 31.81335938 -15.328125 31.10546875 C-18.41740795 27.21499325 -18.612776 22.30983259 -18.56201172 17.45605469 C-17.85111991 14.34937718 -16.90471775 13.56271636 -14.31640625 11.7578125 C-12.75283974 10.84319879 -11.16674023 9.96623229 -9.5625 9.125 C-7.97453108 8.24236988 -6.3921718 7.34954927 -4.81640625 6.4453125 C-4.10943604 6.06906738 -3.40246582 5.69282227 -2.67407227 5.30517578 C-0.60244586 3.69005039 -0.36127929 2.55223075 0 0 Z " fill="#414A51" transform="translate(128,28)"/>
<path d="M0 0 C3.23363953 0.45611336 5.00193919 1.54780641 7.3125 3.8125 C7.84488281 4.31394531 8.37726563 4.81539062 8.92578125 5.33203125 C10 7 10 7 9.78320312 8.92724609 C8.31452866 12.81410588 4.52377375 14.56788538 1.1875 16.8125 C0.46240234 17.32748047 -0.26269531 17.84246094 -1.00976562 18.37304688 C-1.71423828 18.85451172 -2.41871094 19.33597656 -3.14453125 19.83203125 C-3.78753174 20.27264893 -4.43053223 20.7132666 -5.09301758 21.16723633 C-7 22 -7 22 -9.1159668 21.76049805 C-11 21 -11 21 -13 19 C-14.52056618 18.40165446 -16.06612088 17.86493344 -17.625 17.375 C-18.44226563 17.11460938 -19.25953125 16.85421875 -20.1015625 16.5859375 C-21.04128906 16.29589844 -21.04128906 16.29589844 -22 16 C-20.7768573 12.3305719 -19.83030369 12.01809593 -16.5625 10.1171875 C-15.66789062 9.58996094 -14.77328125 9.06273437 -13.8515625 8.51953125 C-12.91054687 7.97683594 -11.96953125 7.43414062 -11 6.875 C-9.14523293 5.7900883 -7.29103492 4.70420294 -5.4375 3.6171875 C-4.61121094 3.13878418 -3.78492187 2.66038086 -2.93359375 2.16748047 C-1.06441712 1.14436284 -1.06441712 1.14436284 0 0 Z " fill="#495661" transform="translate(112,9)"/>
<path d="M0 0 C5.99084432 0.52094298 11.95306128 1.57559657 17 5 C20.32407875 9.91418475 21.97817191 15.1955951 23 21 C22.01 21.33 21.02 21.66 20 22 C19.32694982 20.39850114 18.66177773 18.79368971 18 17.1875 C17.62875 16.29417969 17.2575 15.40085937 16.875 14.48046875 C16 12 16 12 16 9 C10.69960141 7.33445973 5.52706913 5.72724594 0 5 C0 3.35 0 1.7 0 0 Z " fill="#54606C" transform="translate(127,24)"/>
<path d="M0 0 C0.66 0 1.32 0 2 0 C2.20625 0.9075 2.4125 1.815 2.625 2.75 C4.3204079 6.75732776 6.27549784 7.89484661 10 10 C9.67 11.32 9.34 12.64 9 14 C2.25 10.25 2.25 10.25 0 8 C-0.6875 4.4375 -0.6875 4.4375 -1 1 C-0.67 0.67 -0.34 0.34 0 0 Z " fill="#54606C" transform="translate(123,44)"/>
<path d="M0 0 C2.5 2.25 2.5 2.25 5 5 C5 6.32 5 7.64 5 9 C2.11562221 7.70700306 0.12780579 6.34058637 -2 4 C-1.34 2.68 -0.68 1.36 0 0 Z " fill="#7B848D" transform="translate(122,18)"/>
</svg>
