<?xml version="1.0" encoding="UTF-8"?>
<svg version="1.1" xmlns="http://www.w3.org/2000/svg" width="243" height="180">
<path d="M0 0 C4.46664906 2.58073057 7.19341316 5.01153743 8.671875 10.09375 C9.48721412 17.50404731 9.37697441 23.15046653 4.671875 29.09375 C0.11903704 33.1171882 -4.35392211 34.35440458 -10.328125 34.09375 C-15.54492937 32.52870869 -18.93396253 30.36069711 -22.328125 26.09375 C-24.78215133 20.40487078 -24.69442867 15.05044083 -23.328125 9.09375 C-18.57964821 0.08801816 -9.79860083 -3.81422046 0 0 Z " fill="#829099" transform="translate(44.328125,134.90625)"/>
<path d="M0 0 C3.4375 1 3.4375 1 5.375 2.6875 C6.7988395 5.7864448 6.98903827 7.62182812 6.4375 11 C4.12012395 14.04569423 2.65924087 15.73181298 -1.125 16.5625 C-4.49723771 15.7842913 -5.6197794 14.87810459 -7.5625 12 C-8.38693434 7.93612165 -8.16831932 4.99354368 -6 1.4375 C-3.5625 0 -3.5625 0 0 0 Z " fill="#384B59" transform="translate(37.5625,143)"/>
<path d="M0 0 C2.62356846 1.7902629 3.67819338 2.95479007 5.5 5.6875 C5.17 6.6775 4.84 7.6675 4.5 8.6875 C3.79875 7.924375 3.0975 7.16125 2.375 6.375 C-1.56222549 2.69455008 -4.60706978 0.89031395 -10 0.3125 C-15.19695429 0.86931653 -18.29117402 2.31078152 -21.75 6.25 C-22.3275 7.054375 -22.905 7.85875 -23.5 8.6875 C-24.16 9.3475 -24.82 10.0075 -25.5 10.6875 C-25.06534864 5.76145127 -22.90373025 3.16858776 -19.5 -0.3125 C-13.63897023 -3.99657586 -5.77905791 -3.49480369 0 0 Z " fill="#5E6C77" transform="translate(46.5,136.3125)"/>
<path d="M0 0 C3.4375 0.1875 3.4375 0.1875 7 1 C8.4375 3.0625 8.4375 3.0625 9 5 C7.948125 4.62875 6.89625 4.2575 5.8125 3.875 C1.81367786 2.95723754 0.50871784 3.08615391 -3 5 C-1.125 1.125 -1.125 1.125 0 0 Z " fill="#304453" transform="translate(34,143)"/>
</svg>
