<?xml version="1.0" encoding="UTF-8"?>
<svg version="1.1" xmlns="http://www.w3.org/2000/svg" width="243" height="180">
<path d="M0 0 C5.11076175 4.12710049 7.89713522 9.57187385 9 16 C9.31276303 22.10361783 8.16481263 27.13847631 4.66015625 32.17578125 C-0.27508141 37.59873651 -5.99068615 40.69159124 -13.25 41.25 C-21.06455064 40.72902996 -26.62562541 37.64523166 -32 32 C-36.04945587 26.33076178 -36.58429852 20.80932504 -36 14 C-34.87669296 7.91167587 -31.95576747 4.30792336 -27.1796875 0.4765625 C-18.25306405 -5.570505 -9.32285089 -5.19987393 0 0 Z " fill="#84919B" transform="translate(136,128)"/>
<path d="M0 0 C3.65907504 0.68607657 5.35167676 1.98984314 8 4.5625 C9.55024464 7.66298928 9.28992015 10.14144218 9 13.5625 C7.20437595 16.31579021 5.94745078 18.08877461 3 19.5625 C0.1875 20 0.1875 20 -3 19.5625 C-5.94189213 17.00433293 -7.57072451 15.33845423 -8.484375 11.55859375 C-8.74798144 7.69968839 -8.09780076 5.70057166 -5.875 2.5625 C-3 0.5625 -3 0.5625 0 0 Z " fill="#374B58" transform="translate(122,136.4375)"/>
</svg>
